<?xml version="1.0" encoding="UTF-8" standalone="no"?>
<!-- Created with Inkscape (http://www.inkscape.org/) -->

<svg
   xmlns:dc="http://purl.org/dc/elements/1.1/"
   xmlns:cc="http://creativecommons.org/ns#"
   xmlns:rdf="http://www.w3.org/1999/02/22-rdf-syntax-ns#"
   xmlns:svg="http://www.w3.org/2000/svg"
   xmlns="http://www.w3.org/2000/svg"
   xmlns:sodipodi="http://sodipodi.sourceforge.net/DTD/sodipodi-0.dtd"
   xmlns:inkscape="http://www.inkscape.org/namespaces/inkscape"
   width="210mm"
   height="297mm"
   viewBox="0 0 744.09448 1052.3622"
   id="svg2"
   version="1.1"
   inkscape:version="0.91 r13725"
   sodipodi:docname="icons.svg">
  <defs
     id="defs4" />
  <sodipodi:namedview
     id="base"
     pagecolor="#ffffff"
     bordercolor="#666666"
     borderopacity="1.0"
     inkscape:pageopacity="0.0"
     inkscape:pageshadow="2"
     inkscape:zoom="0.98994949"
     inkscape:cx="489.04799"
     inkscape:cy="713.88318"
     inkscape:document-units="px"
     inkscape:current-layer="layer1"
     showgrid="false"
     inkscape:window-width="1707"
     inkscape:window-height="897"
     inkscape:window-x="-8"
     inkscape:window-y="-8"
     inkscape:window-maximized="1"
     fit-margin-top="0"
     fit-margin-left="0"
     fit-margin-right="0"
     fit-margin-bottom="0" />
  <metadata
     id="metadata7">
    <rdf:RDF>
      <cc:Work
         rdf:about="">
        <dc:format>image/svg+xml</dc:format>
        <dc:type
           rdf:resource="http://purl.org/dc/dcmitype/StillImage" />
        <dc:title />
      </cc:Work>
    </rdf:RDF>
  </metadata>
  <g
     inkscape:label="Layer 1"
     inkscape:groupmode="layer"
     id="layer1"
     transform="translate(-65.949631,280.35673)">
    <rect
       style="color:#000000;clip-rule:nonzero;display:inline;overflow:visible;visibility:visible;opacity:1;isolation:auto;mix-blend-mode:normal;color-interpolation:sRGB;color-interpolation-filters:linearRGB;solid-color:#000000;solid-opacity:1;fill:#642a28;fill-opacity:1;fill-rule:nonzero;stroke:none;stroke-width:1.89999998;stroke-linecap:butt;stroke-linejoin:miter;stroke-miterlimit:4;stroke-dasharray:none;stroke-dashoffset:0;stroke-opacity:1;marker:none;color-rendering:auto;image-rendering:auto;shape-rendering:auto;text-rendering:auto;enable-background:accumulate"
       id="rect4160"
       width="185.00858"
       height="179.74522"
       x="65.402435"
       y="-280.08249" />
    <path
       style="fill:#ffad32;fill-opacity:1"
       d="m 117.51821,-164.60618 0,-22.40316 19.99175,-16.29326 c 10.99562,-8.96131 20.13525,-16.29329 20.31028,-16.29329 0.17446,0 9.31409,7.33176 20.30896,16.29283 l 19.99043,16.29283 0,22.40359 0,22.40362 -12.70626,0 -16.30008,0 0,-22.07557 0,-16.94172 -11.29437,0 -11.29463,0 0,16.94172 0,22.07557 -16.29983,0 -12.70625,0 z m -13.90433,-25.47635 c -2.72952,-3.34386 -4.988096,-6.21206 -5.019096,-6.37375 -0.0549,-0.28513 58.819686,-48.29549 59.224136,-48.29549 0.40443,0 59.27861,48.01036 59.22415,48.29549 -0.0315,0.16173 -2.2896,3.02989 -5.01913,6.37375 -4.47765,5.48571 -5.00423,6.0442 -5.39046,5.71566 -0.2344,-0.20028 -11.31524,-9.22601 -24.62123,-20.05718 l -24.19333,-19.69299 -24.19334,19.69299 c -13.30623,10.83117 -24.38576,19.8569 -24.62124,20.05718 -0.38622,0.32854 -0.91312,-0.22996 -5.39046,-5.71566 z m 84.70274,-34.21742 -9.67455,-7.87387 -0.0258,-4.17127 -0.0258,-4.17123 9.75428,0 9.75412,0 0,12.06452 c 0,6.63551 -0.0282,12.05586 -0.0648,12.04517 -0.0341,-0.0101 -4.41781,-3.56266 -9.73876,-7.89332 z"
       id="path4147"
       inkscape:connector-curvature="0"
       sodipodi:nodetypes="ccsssccccccccccccccssssssscsssccccccsccc"
       inkscape:export-xdpi="90"
       inkscape:export-ydpi="90"
       inkscape:export-filename="C:\Temp\jekyll\sfat\img\icons\home-light.png" />
    <g
       id="g4171"
       transform="translate(64.462939,-294.21714)"
       style="color:#000000;clip-rule:nonzero;display:inline;overflow:visible;visibility:visible;opacity:1;isolation:auto;mix-blend-mode:normal;color-interpolation:sRGB;color-interpolation-filters:linearRGB;solid-color:#000000;solid-opacity:1;fill:#960000;fill-opacity:1;fill-rule:nonzero;stroke-width:1;stroke-linecap:butt;stroke-linejoin:miter;stroke-miterlimit:4;stroke-dasharray:none;stroke-dashoffset:0;stroke-opacity:1;color-rendering:auto;image-rendering:auto;shape-rendering:auto;text-rendering:auto;enable-background:accumulate"
       inkscape:export-filename="C:\Temp\jekyll\sfat\img\icons\calendar-dark.png"
       inkscape:export-xdpi="90"
       inkscape:export-ydpi="90">
      <rect
         style="color:#000000;clip-rule:nonzero;display:inline;overflow:visible;visibility:visible;isolation:auto;mix-blend-mode:normal;color-interpolation:sRGB;color-interpolation-filters:linearRGB;solid-color:#000000;solid-opacity:1;fill:#960000;fill-opacity:1;fill-rule:nonzero;stroke-width:1;stroke-linecap:butt;stroke-linejoin:miter;stroke-miterlimit:4;stroke-dasharray:none;stroke-dashoffset:0;stroke-opacity:1;color-rendering:auto;image-rendering:auto;shape-rendering:auto;text-rendering:auto;enable-background:accumulate"
         height="17.379961"
         width="17.379961"
         x="97.399788"
         y="399.37399"
         id="rect5" />
      <rect
         style="color:#000000;clip-rule:nonzero;display:inline;overflow:visible;visibility:visible;isolation:auto;mix-blend-mode:normal;color-interpolation:sRGB;color-interpolation-filters:linearRGB;solid-color:#000000;solid-opacity:1;fill:#960000;fill-opacity:1;fill-rule:nonzero;stroke-width:1;stroke-linecap:butt;stroke-linejoin:miter;stroke-miterlimit:4;stroke-dasharray:none;stroke-dashoffset:0;stroke-opacity:1;color-rendering:auto;image-rendering:auto;shape-rendering:auto;text-rendering:auto;enable-background:accumulate"
         height="17.379961"
         width="17.379961"
         x="124.64622"
         y="399.37399"
         id="rect7" />
      <rect
         style="color:#000000;clip-rule:nonzero;display:inline;overflow:visible;visibility:visible;isolation:auto;mix-blend-mode:normal;color-interpolation:sRGB;color-interpolation-filters:linearRGB;solid-color:#000000;solid-opacity:1;fill:#960000;fill-opacity:1;fill-rule:nonzero;stroke-width:1;stroke-linecap:butt;stroke-linejoin:miter;stroke-miterlimit:4;stroke-dasharray:none;stroke-dashoffset:0;stroke-opacity:1;color-rendering:auto;image-rendering:auto;shape-rendering:auto;text-rendering:auto;enable-background:accumulate"
         height="17.379961"
         width="17.379961"
         x="70.180092"
         y="425.79153"
         id="rect9" />
      <rect
         style="color:#000000;clip-rule:nonzero;display:inline;overflow:visible;visibility:visible;isolation:auto;mix-blend-mode:normal;color-interpolation:sRGB;color-interpolation-filters:linearRGB;solid-color:#000000;solid-opacity:1;fill:#960000;fill-opacity:1;fill-rule:nonzero;stroke-width:1;stroke-linecap:butt;stroke-linejoin:miter;stroke-miterlimit:4;stroke-dasharray:none;stroke-dashoffset:0;stroke-opacity:1;color-rendering:auto;image-rendering:auto;shape-rendering:auto;text-rendering:auto;enable-background:accumulate"
         height="17.379961"
         width="17.379961"
         x="97.399788"
         y="425.79153"
         id="rect11" />
      <rect
         style="color:#000000;clip-rule:nonzero;display:inline;overflow:visible;visibility:visible;isolation:auto;mix-blend-mode:normal;color-interpolation:sRGB;color-interpolation-filters:linearRGB;solid-color:#000000;solid-opacity:1;fill:#960000;fill-opacity:1;fill-rule:nonzero;stroke-width:1;stroke-linecap:butt;stroke-linejoin:miter;stroke-miterlimit:4;stroke-dasharray:none;stroke-dashoffset:0;stroke-opacity:1;color-rendering:auto;image-rendering:auto;shape-rendering:auto;text-rendering:auto;enable-background:accumulate"
         height="17.379961"
         width="17.379961"
         x="124.64622"
         y="425.79153"
         id="rect13" />
      <path
         style="color:#000000;clip-rule:nonzero;display:inline;overflow:visible;visibility:visible;isolation:auto;mix-blend-mode:normal;color-interpolation:sRGB;color-interpolation-filters:linearRGB;solid-color:#000000;solid-opacity:1;fill:#960000;fill-opacity:1;fill-rule:nonzero;stroke-width:1;stroke-linecap:butt;stroke-linejoin:miter;stroke-miterlimit:4;stroke-dasharray:none;stroke-dashoffset:0;stroke-opacity:1;color-rendering:auto;image-rendering:auto;shape-rendering:auto;text-rendering:auto;enable-background:accumulate"
         inkscape:connector-curvature="0"
         d="m 79.297887,367.07399 0,0 c -4.278145,0 -7.780875,-3.50273 -7.780875,-7.78087 l 0,-17.51366 c 0,-4.27814 3.50273,-7.78087 7.780875,-7.78087 l 0,0 c 4.278144,0 7.780875,3.50273 7.780875,7.78087 l 0,17.5404 c 0,4.2514 -3.502731,7.75413 -7.780875,7.75413 z"
         id="path15" />
      <path
         style="color:#000000;clip-rule:nonzero;display:inline;overflow:visible;visibility:visible;isolation:auto;mix-blend-mode:normal;color-interpolation:sRGB;color-interpolation-filters:linearRGB;solid-color:#000000;solid-opacity:1;fill:#960000;fill-opacity:1;fill-rule:nonzero;stroke-width:1;stroke-linecap:butt;stroke-linejoin:miter;stroke-miterlimit:4;stroke-dasharray:none;stroke-dashoffset:0;stroke-opacity:1;color-rendering:auto;image-rendering:auto;shape-rendering:auto;text-rendering:auto;enable-background:accumulate"
         inkscape:connector-curvature="0"
         d="m 152.80176,350.52292 -8.82368,0 0,10.61515 c 0,6.55091 -5.26746,11.89859 -11.71142,11.89859 l -3.10165,0 c -6.44396,0 -11.71142,-5.34768 -11.71142,-11.89859 l 0,-10.61515 -24.171518,0 0,10.61515 c 0,6.55091 -5.267466,11.89859 -11.711421,11.89859 l -3.101655,0 c -6.443955,0 -11.71142,-5.34768 -11.71142,-11.89859 l 0,-10.61515 -6.764816,0 c -7.246107,0 -13.182033,6.01614 -13.182033,13.3692 l 0,93.58441 c 0,7.35306 5.935926,13.3692 13.182033,13.3692 l 92.83574,0 c 7.2461,0 13.18203,-6.01614 13.18203,-13.3692 l 0,-93.58441 c -0.0267,-7.35306 -5.96267,-13.3692 -13.20877,-13.3692 z m -2.24603,94.33309 c 0,4.57226 -3.6899,8.31564 -8.18195,8.31564 l -71.926305,0 c -4.492051,0 -8.181951,-3.74338 -8.181951,-8.31564 l 0,-47.16655 c 0,-4.57226 3.6899,-8.6365 8.181951,-8.6365 l 71.926305,0 c 4.49205,0 8.18195,4.06424 8.18195,8.6365 l 0,47.16655 z"
         id="path17" />
      <path
         style="color:#000000;clip-rule:nonzero;display:inline;overflow:visible;visibility:visible;isolation:auto;mix-blend-mode:normal;color-interpolation:sRGB;color-interpolation-filters:linearRGB;solid-color:#000000;solid-opacity:1;fill:#960000;fill-opacity:1;fill-rule:nonzero;stroke-width:1;stroke-linecap:butt;stroke-linejoin:miter;stroke-miterlimit:4;stroke-dasharray:none;stroke-dashoffset:0;stroke-opacity:1;color-rendering:auto;image-rendering:auto;shape-rendering:auto;text-rendering:auto;enable-background:accumulate"
         inkscape:connector-curvature="0"
         d="m 130.76931,367.07399 0,0 c -4.27814,0 -7.78087,-3.50273 -7.78087,-7.78087 l 0,-17.51366 c 0,-4.27814 3.50273,-7.78087 7.78087,-7.78087 l 0,0 c 4.27815,0 7.78088,3.50273 7.78088,7.78087 l 0,17.5404 c 0,4.2514 -3.50273,7.75413 -7.78088,7.75413 z"
         id="path19" />
    </g>
    <path
       style="color:#000000;clip-rule:nonzero;display:inline;overflow:visible;visibility:visible;opacity:1;isolation:auto;mix-blend-mode:normal;color-interpolation:sRGB;color-interpolation-filters:linearRGB;solid-color:#000000;solid-opacity:1;fill:#960000;fill-opacity:1;fill-rule:nonzero;stroke-width:1;stroke-linecap:butt;stroke-linejoin:miter;stroke-miterlimit:4;stroke-dasharray:none;stroke-dashoffset:0;stroke-opacity:1;color-rendering:auto;image-rendering:auto;shape-rendering:auto;text-rendering:auto;enable-background:accumulate"
       d="m 302.25183,175.22605 c -0.49197,-0.0604 -1.81457,-0.28474 -2.9391,-0.49848 -9.50226,-1.8061 -17.45767,-8.1286 -21.525,-17.10688 -4.46944,-9.86585 -2.88255,-22.14356 4.09321,-31.66934 0.97803,-1.33557 6.76878,-7.31427 16.37299,-16.90441 15.93518,-15.911816 16.53684,-16.438566 21.57897,-18.892176 12.07632,-5.87662 26.26997,-3.80792 35.2096,5.1317 1.81132,1.81132 2.49221,3.60583 2.36605,6.235776 -0.15834,3.30086 -2.0929,5.97458 -5.15065,7.11863 -3.06093,1.14523 -5.72951,0.52937 -8.85868,-2.04441 -3.02191,-2.48556 -5.83161,-3.54078 -9.42792,-3.54078 -3.27627,0 -6.72408,1.20852 -9.8679,3.45888 -2.43513,1.74307 -28.96814,28.57477 -29.99573,30.33341 -3.89168,6.66018 -3.37928,13.46616 1.37149,18.21695 5.14822,5.14819 13.13025,5.2694 19.68085,0.29883 0.84247,-0.63925 4.85917,-4.49743 8.92601,-8.57371 l 7.39428,-7.41145 0.66764,0.47541 c 1.71765,1.22308 5.60588,2.52006 9.2525,3.0863 2.55298,0.39643 7.61992,0.19153 9.15485,-0.3702 1.02832,-0.37633 -0.17569,0.90144 -11.37303,12.06975 -7.02566,7.00744 -13.36457,13.11072 -14.43993,13.90318 -4.01224,2.9567 -8.84748,5.15449 -13.41763,6.0988 -2.27571,0.47023 -7.34379,0.79658 -9.07287,0.58422 z m 40.21337,-40.75432 c -6.73316,-0.61215 -13.26701,-3.66276 -17.87635,-8.34633 -1.8226,-1.85196 -2.48058,-3.58472 -2.35503,-6.20186 0.15836,-3.30087 2.0929,-5.97458 5.15066,-7.11863 3.06093,-1.14523 5.7295,-0.52938 8.85868,2.0444 3.0219,2.48556 5.83162,3.54079 9.42792,3.54079 3.27627,0 6.72408,-1.20852 9.8679,-3.45889 2.43512,-1.74307 28.96813,-28.574766 29.99573,-30.333386 3.89166,-6.6602 3.37927,-13.46618 -1.3715,-18.21695 -4.94305,-4.94305 -12.41816,-5.26521 -19.04022,-0.82059 -0.63255,0.42455 -4.72342,4.3234 -9.09085,8.66413 l -7.94078,7.89221 -0.64033,-0.50368 c -3.35347,-2.63785 -13.41036,-4.23914 -17.88239,-2.84729 l -1.60858,0.50065 11.87265,-11.89189 c 6.52996,-6.54055 12.85022,-12.68374 14.04504,-13.65154 4.26867,-3.45769 9.72482,-6.0228 15.01726,-7.0601 3.24896,-0.63678 8.64098,-0.57951 11.9048,0.12645 9.05565,1.95871 16.45792,7.73981 20.50421,16.01358 5.58046,11.41082 3.4175,24.94638 -5.62288,35.18748 -2.88896,3.272656 -28.18662,28.343136 -29.91922,29.650506 -6.89677,5.20418 -15.01325,7.58405 -23.29672,6.83094 z"
       id="path4155"
       inkscape:connector-curvature="0"
       inkscape:export-filename="C:\Temp\jekyll\sfat\img\icons\link-dark.png"
       inkscape:export-xdpi="90"
       inkscape:export-ydpi="90" />
    <rect
       ry="13.750017"
       rx="13.750017"
       y="242.10483"
       x="466.56836"
       height="120"
       width="120"
       id="rect4247"
       style="color:#000000;clip-rule:nonzero;display:inline;overflow:visible;visibility:visible;opacity:1;isolation:auto;mix-blend-mode:normal;color-interpolation:sRGB;color-interpolation-filters:linearRGB;solid-color:#000000;solid-opacity:1;fill:#960000;fill-opacity:1;fill-rule:nonzero;stroke:none;stroke-width:1;stroke-linecap:butt;stroke-linejoin:miter;stroke-miterlimit:4;stroke-dasharray:none;stroke-dashoffset:0;stroke-opacity:1;marker:none;color-rendering:auto;image-rendering:auto;shape-rendering:auto;text-rendering:auto;enable-background:accumulate" />
    <g
       id="g4249"
       inkscape:export-filename="C:\Temp\jekyll\sfat\img\icons\seven-dark-gray.png"
       inkscape:export-xdpi="90"
       inkscape:export-ydpi="90"
       transform="translate(107.56094,-294.97475)"
       style="color:#000000;clip-rule:nonzero;display:inline;overflow:visible;visibility:visible;opacity:1;isolation:auto;mix-blend-mode:normal;color-interpolation:sRGB;color-interpolation-filters:linearRGB;solid-color:#000000;solid-opacity:1;fill:#a50000;fill-opacity:1;fill-rule:nonzero;stroke-width:1;stroke-linecap:butt;stroke-linejoin:miter;stroke-miterlimit:4;stroke-dasharray:none;stroke-dashoffset:0;stroke-opacity:1;color-rendering:auto;image-rendering:auto;shape-rendering:auto;text-rendering:auto;enable-background:accumulate">
      <path
         style="color:#000000;clip-rule:nonzero;display:inline;overflow:visible;visibility:visible;opacity:1;isolation:auto;mix-blend-mode:normal;color-interpolation:sRGB;color-interpolation-filters:linearRGB;solid-color:#000000;solid-opacity:1;fill:#a50000;fill-opacity:1;fill-rule:nonzero;stroke:none;stroke-width:1;stroke-linecap:butt;stroke-linejoin:miter;stroke-miterlimit:4;stroke-dasharray:none;stroke-dashoffset:0;stroke-opacity:1;marker:none;color-rendering:auto;image-rendering:auto;shape-rendering:auto;text-rendering:auto;enable-background:accumulate"
         d="m 367.20117,344.14062 c -7.61751,0 -13.75,6.1325 -13.75,13.75 l 0,92.5 c 0,7.61751 6.13249,13.75 13.75,13.75 l 92.5,0 c 7.61751,10e-6 13.75,-6.13249 13.75,-13.75 l 0,-92.5 c 0,-7.6175 -6.13249,-13.75 -13.75,-13.75 l -92.5,0 z m 8.72461,17.29493 75.05274,0 c 2.86894,0 5.17773,2.30879 5.17773,5.17773 l 0,75.05274 c 0,2.86894 -2.30879,5.17968 -5.17773,5.17968 l -75.05274,0 c -2.86894,0 -5.17969,-2.31074 -5.17969,-5.17968 l 0,-75.05274 c 0,-2.86894 2.31075,-5.17773 5.17969,-5.17773 z"
         id="rect4189"
         inkscape:connector-curvature="0" />
      <text
         transform="scale(0.99972998,1.0002701)"
         xml:space="preserve"
         style="color:#000000;font-style:normal;font-variant:normal;font-weight:normal;font-stretch:normal;font-size:85.00121307px;line-height:125%;font-family:'Arial Rounded MT Bold';-inkscape-font-specification:'Arial Rounded MT Bold, ';letter-spacing:0px;word-spacing:0px;clip-rule:nonzero;display:inline;overflow:visible;visibility:visible;isolation:auto;mix-blend-mode:normal;color-interpolation:sRGB;color-interpolation-filters:linearRGB;solid-color:#000000;solid-opacity:1;fill:#a50000;fill-opacity:1;fill-rule:nonzero;stroke:#a50000;stroke-width:1;stroke-linecap:butt;stroke-linejoin:miter;stroke-miterlimit:4;stroke-dasharray:none;stroke-dashoffset:0;stroke-opacity:1;color-rendering:auto;image-rendering:auto;shape-rendering:auto;text-rendering:auto;enable-background:accumulate"
         x="386.19101"
         y="434.14975"
         id="text4185"
         sodipodi:linespacing="125%"><tspan
           style="color:#000000;clip-rule:nonzero;display:inline;overflow:visible;visibility:visible;isolation:auto;mix-blend-mode:normal;color-interpolation:sRGB;color-interpolation-filters:linearRGB;solid-color:#000000;solid-opacity:1;fill:#a50000;fill-opacity:1;fill-rule:nonzero;stroke:#a50000;stroke-width:1;stroke-linecap:butt;stroke-linejoin:miter;stroke-miterlimit:4;stroke-dasharray:none;stroke-dashoffset:0;stroke-opacity:1;color-rendering:auto;image-rendering:auto;shape-rendering:auto;text-rendering:auto;enable-background:accumulate"
           sodipodi:role="line"
           id="tspan4187"
           x="386.19101"
           y="434.14975">7</tspan></text>
    </g>
    <g
       id="g4300"
       inkscape:export-filename="C:\Temp\jekyll\sfat\img\icons\seven-dark.png"
       inkscape:export-xdpi="90"
       inkscape:export-ydpi="90"
       transform="translate(52.507627,-294.97475)"
       style="fill:#960000;fill-opacity:1">
      <rect
         id="rect4258"
         y="598.34955"
         x="123.01247"
         width="17.379961"
         height="17.379961"
         style="fill:#960000;fill-opacity:1" />
      <path
         id="path4268"
         d="m 91.253199,539.26017 0,0 c -4.278145,0 -7.780875,-3.50273 -7.780875,-7.78087 l 0,-17.51366 c 0,-4.27814 3.50273,-7.78087 7.780875,-7.78087 l 0,0 c 4.278144,0 7.780875,3.50273 7.780875,7.78087 l 0,17.5404 c 0,4.2514 -3.502731,7.75413 -7.780875,7.75413 z"
         inkscape:connector-curvature="0"
         style="fill:#960000;fill-opacity:1" />
      <path
         id="path4270"
         d="m 164.75707,522.7091 -8.82368,0 0,10.61515 c 0,6.55091 -5.26746,11.89859 -11.71142,11.89859 l -3.10165,0 c -6.44396,0 -11.71142,-5.34768 -11.71142,-11.89859 l 0,-10.61515 -24.17152,0 0,10.61515 c 0,6.55091 -5.267462,11.89859 -11.711417,11.89859 l -3.101655,0 c -6.443955,0 -11.71142,-5.34768 -11.71142,-11.89859 l 0,-10.61515 -6.764816,0 c -7.246107,0 -13.182033,6.01614 -13.182033,13.3692 l 0,93.58441 c 0,7.35306 5.935926,13.3692 13.182033,13.3692 l 92.835738,0 c 7.2461,0 13.18203,-6.01614 13.18203,-13.3692 l 0,-93.58441 c -0.0267,-7.35306 -5.96267,-13.3692 -13.20877,-13.3692 z m -2.24603,94.33309 c 0,4.57226 -3.6899,8.31564 -8.18195,8.31564 l -71.926303,0 c -4.492051,0 -8.181951,-3.74338 -8.181951,-8.31564 l 0,-47.16655 c 0,-4.57226 3.6899,-8.6365 8.181951,-8.6365 l 71.926303,0 c 4.49205,0 8.18195,4.06424 8.18195,8.6365 l 0,47.16655 z"
         inkscape:connector-curvature="0"
         style="fill:#960000;fill-opacity:1" />
      <path
         id="path4272"
         d="m 142.72462,539.26017 0,0 c -4.27814,0 -7.78087,-3.50273 -7.78087,-7.78087 l 0,-17.51366 c 0,-4.27814 3.50273,-7.78087 7.78087,-7.78087 l 0,0 c 4.27815,0 7.78088,3.50273 7.78088,7.78087 l 0,17.5404 c 0,4.2514 -3.50273,7.75413 -7.78088,7.75413 z"
         inkscape:connector-curvature="0"
         style="fill:#960000;fill-opacity:1" />
      <text
         sodipodi:linespacing="125%"
         id="text4185-5"
         y="611.42169"
         x="92.791779"
         style="font-style:normal;font-variant:normal;font-weight:normal;font-stretch:normal;font-size:55.36236191px;line-height:125%;font-family:'Arial Rounded MT Bold';-inkscape-font-specification:'Arial Rounded MT Bold, ';letter-spacing:0px;word-spacing:0px;fill:#960000;fill-opacity:1;stroke:#a50000;stroke-width:2.20000005;stroke-linecap:butt;stroke-linejoin:miter;stroke-miterlimit:4;stroke-dasharray:none;stroke-opacity:1"
         xml:space="preserve"
         transform="scale(0.99554582,1.0044741)"><tspan
           y="611.42169"
           x="92.791779"
           id="tspan4187-2"
           sodipodi:role="line"
           style="fill:#960000;fill-opacity:1;stroke:#a50000;stroke-width:2.20000005;stroke-opacity:1">7</tspan></text>
    </g>
    <path
       style="fill:#5b5b5b;fill-opacity:1"
       d="m 119.1432,509.80968 c -1.14457,-0.1915 -2.49447,-0.9996 -3.20114,-1.9162 -0.41906,-0.5435 -0.81844,-1.3819 -0.94211,-1.9777 -0.0666,-0.3206 -0.084,-1.7971 -0.0581,-4.9035 0.0404,-4.8319 0.0806,-5.3698 0.57797,-7.73831 0.49394,-2.35201 1.65942,-5.22748 2.82385,-6.96699 1.10355,-1.64856 2.72796,-3.38021 4.20359,-4.4811 1.05466,-0.78683 2.7288,-1.80176 4.35583,-2.64066 l 1.4685,-0.75718 -0.0639,0.3293 c -0.0352,0.18112 -0.0589,0.82101 -0.0528,1.42199 0.0464,4.55521 2.1395,9.24604 5.63816,12.63547 3.18584,3.08638 7.22498,4.87248 11.62742,5.14178 4.43666,0.2712 8.58093,-0.9783 12.24518,-3.6923 1.05319,-0.77999 2.76467,-2.49013 3.56881,-3.56598 2.48912,-3.33018 3.83433,-7.32481 3.73474,-11.09035 -0.0156,-0.58875 -0.0129,-1.0704 0.006,-1.07034 0.0189,7e-5 0.58891,0.27925 1.26672,0.62041 1.29072,0.64965 2.30661,1.24417 3.59053,2.10124 4.63012,3.0908 7.48272,8.08494 8.18919,14.33702 0.21277,1.883 0.32198,4.78 0.28811,7.6426 -0.0314,2.6545 -0.0358,2.7122 -0.24677,3.2614 -0.11814,0.3074 -0.32233,0.7444 -0.45374,0.9711 -0.36586,0.6311 -1.34651,1.5506 -1.99015,1.8662 -1.16462,0.571 1.18661,0.529 -29.00354,0.5178 -15.04871,-0.01 -27.45626,-0.026 -27.57239,-0.046 z m 25.99702,-18.27251 c -3.54157,-0.43969 -6.88014,-2.60435 -8.76127,-5.68061 -0.76887,-1.25729 -1.38846,-2.90759 -1.62231,-4.32091 -0.17965,-1.0859 -0.13824,-3.28888 0.0812,-4.32278 1.00548,-4.73583 4.58431,-8.35693 9.30313,-9.413 1.18997,-0.26632 3.67212,-0.28585 4.85467,-0.0382 3.05219,0.63919 5.62635,2.28604 7.46866,4.77819 0.76433,1.03393 1.63321,2.84665 1.96415,4.09779 0.26011,0.9834 0.26822,1.06711 0.27339,2.82902 0.004,1.43488 -0.0258,1.96072 -0.14398,2.50742 -0.66307,3.07104 -2.57067,5.88227 -5.16057,7.60512 -1.26596,0.84213 -2.87213,1.50675 -4.35643,1.80265 -0.95305,0.19 -2.97339,0.27045 -3.90069,0.15532 z M 115.08161,471.7905 c -1.32472,-0.42383 -2.34282,-1.60085 -2.60327,-3.00957 -0.17009,-0.92022 -0.0644,-3.16669 0.21436,-4.55719 1.27752,-6.37177 7.63551,-11.17525 17.84236,-13.47998 1.75947,-0.3973 4.31992,-0.83987 6.25784,-1.08166 6.36658,-0.79435 14.77051,-0.72706 21.11209,0.16904 8.47421,1.19746 14.9309,3.78517 18.80589,7.53702 2.16432,2.09554 3.34036,4.08998 3.96774,6.7289 0.17862,0.75131 0.21779,1.16472 0.25648,2.7073 0.05,1.99334 -0.006,2.38404 -0.461,3.22509 -0.31153,0.57565 -1.09636,1.28824 -1.77053,1.60758 l -0.5732,0.2715 -7.38923,0.0222 -7.38923,0.0222 -0.39771,-0.78223 c -0.46886,-0.92219 -1.39134,-2.35842 -2.06401,-3.2135 -0.69994,-0.88972 -2.32204,-2.47345 -3.19634,-3.12069 -5.53477,-4.09742 -12.66673,-4.82207 -18.78894,-1.90907 -0.58014,0.27604 -1.34017,0.6778 -1.68898,0.89281 -2.79329,1.7219 -5.37246,4.49642 -6.81461,7.33077 l -0.4065,0.79897 -7.22036,-0.004 c -6.69917,-0.004 -7.25444,-0.0151 -7.69285,-0.15534 z"
       id="path4169"
       inkscape:connector-curvature="0"
       inkscape:export-filename="C:\Temp\jekyll\sfat\img\icons\phone-gray.png"
       inkscape:export-xdpi="90"
       inkscape:export-ydpi="90" />
    <rect
       y="-280.18176"
       x="249.5529"
       height="179.74522"
       width="185.00858"
       id="rect4159"
       style="color:#000000;clip-rule:nonzero;display:inline;overflow:visible;visibility:visible;opacity:1;isolation:auto;mix-blend-mode:normal;color-interpolation:sRGB;color-interpolation-filters:linearRGB;solid-color:#000000;solid-opacity:1;fill:#eeeeee;fill-opacity:1;fill-rule:nonzero;stroke:none;stroke-width:1.89999998;stroke-linecap:butt;stroke-linejoin:miter;stroke-miterlimit:4;stroke-dasharray:none;stroke-dashoffset:0;stroke-opacity:1;marker:none;color-rendering:auto;image-rendering:auto;shape-rendering:auto;text-rendering:auto;enable-background:accumulate" />
    <path
       style="fill:#541311;fill-opacity:1"
       d="m 305.02837,-157.98601 0,-22.40316 19.99175,-16.29326 c 10.99561,-8.96131 20.13524,-16.2933 20.31027,-16.2933 0.17445,0 9.31409,7.33177 20.30897,16.29282 l 19.9904,16.29283 0,22.40361 0,22.4036 -12.70622,0 -16.30011,0 0,-22.07555 0,-16.94172 -11.29435,0 -11.29463,0 0,16.94172 0,22.07555 -16.29985,0 -12.70623,0 z m -13.90433,-25.47635 c -2.72954,-3.34388 -4.9881,-6.21206 -5.01913,-6.37376 -0.0549,-0.28514 58.81973,-48.29548 59.22417,-48.29548 0.40443,0 59.2786,48.01034 59.22414,48.29548 -0.0316,0.16174 -2.28959,3.02988 -5.01913,6.37376 -4.47764,5.48573 -5.00422,6.04419 -5.39046,5.71566 -0.23439,-0.20028 -11.31524,-9.22601 -24.62121,-20.05717 l -24.19334,-19.69301 -24.19336,19.69301 c -13.30624,10.83116 -24.38574,19.85689 -24.62122,20.05717 -0.38622,0.32853 -0.91314,-0.22996 -5.39046,-5.71566 z m 84.70271,-34.21743 -9.67453,-7.87386 -0.0258,-4.17127 -0.0258,-4.17123 9.75429,0 9.75411,0 0,12.06452 c 0,6.63551 -0.0282,12.05585 -0.065,12.04517 -0.0341,-0.0101 -4.41779,-3.56268 -9.73874,-7.89333 z"
       id="path4161"
       inkscape:connector-curvature="0"
       sodipodi:nodetypes="ccsssccccccccccccccssssssscsssccccccsccc"
       inkscape:export-xdpi="90"
       inkscape:export-ydpi="90"
       inkscape:export-filename="C:\Temp\jekyll\sfat\img\icons\home-dark.png" />
    <path
       style="color:#000000;clip-rule:nonzero;display:inline;overflow:visible;visibility:visible;opacity:1;isolation:auto;mix-blend-mode:normal;color-interpolation:sRGB;color-interpolation-filters:linearRGB;solid-color:#000000;solid-opacity:1;fill:#960000;fill-opacity:1;fill-rule:nonzero;stroke-width:1;stroke-linecap:butt;stroke-linejoin:miter;stroke-miterlimit:4;stroke-dasharray:none;stroke-dashoffset:0;stroke-opacity:1;color-rendering:auto;image-rendering:auto;shape-rendering:auto;text-rendering:auto;enable-background:accumulate"
       d="m 325.81943,348.30415 c -2.42409,-0.46323 -3.30313,-0.77329 -5.81819,-2.0522 -1.79445,-0.91248 -2.61924,-1.54058 -4.5233,-3.44465 -1.90828,-1.90827 -2.53715,-2.73487 -3.4833,-4.5785 -1.68036,-3.27424 -2.18348,-5.36858 -2.18348,-9.089 0,-3.36159 0.44873,-5.5532 1.66154,-8.11467 l 0.66647,-1.40762 4.41872,4.33558 c 7.00028,6.86856 13.62918,12.62189 20.19431,17.52698 1.83671,1.37229 3.53753,2.61397 3.7796,2.7593 0.4062,0.24387 0.38371,0.31105 -0.29139,0.87098 -1.12581,0.93374 -4.08573,2.2909 -6.1685,2.82834 -2.45716,0.63402 -6.02121,0.79185 -8.25248,0.36546 z m 37.22053,0.009 c -8.43893,-1.96555 -21.67606,-10.70594 -36.37881,-24.02069 -4.39007,-3.97563 -14.39125,-14.0789 -17.89379,-18.07644 -8.12727,-9.27588 -13.89943,-17.08448 -17.85891,-24.15969 -3.06457,-5.47608 -4.48807,-9.37542 -4.53394,-12.41966 -0.0324,-2.14912 0.54044,-3.35559 2.26909,-4.77908 2.8517,-2.34829 6.55233,-3.692 11.99368,-4.35494 1.79858,-0.21912 4.58691,-0.5587 6.19629,-0.75462 15.32891,-1.86611 26.26598,-7.69385 41.53046,-22.12919 4.82151,-4.55962 7.72847,-5.69509 13.9444,-5.44676 5.19918,0.20774 10.25726,1.8064 15.44498,4.88159 1.05135,0.62322 2.01149,1.07137 2.13365,0.99587 0.12215,-0.0754 0.22208,-0.45431 0.22208,-0.84181 0,-1.38267 1.22245,-4.59522 2.44295,-6.42002 2.00635,-2.99974 4.7146,-5.05351 8.14522,-6.17687 1.66711,-0.54588 2.4009,-0.64502 4.77411,-0.64502 2.3732,0 3.107,0.0991 4.77411,0.64502 3.4306,1.12336 6.13886,3.17713 8.1452,6.17687 4.53931,6.78682 2.98426,15.99859 -3.54243,20.98449 -1.8511,1.41409 -4.79813,2.69313 -6.73335,2.92232 -0.65709,0.0779 -1.23863,0.21257 -1.29231,0.29944 -0.0537,0.0869 0.23696,0.69546 0.64588,1.35244 2.30431,3.70221 4.43308,9.05155 5.0965,12.80689 0.44522,2.52016 0.39225,6.81502 -0.10824,8.77844 -0.81507,3.19751 -2.09085,5.28638 -5.31118,8.69621 -10.26532,10.86936 -15.68679,18.90518 -19.01362,28.1824 -1.77369,4.9461 -2.36227,7.77794 -3.38366,16.2797 -0.39476,3.28583 -0.94052,6.85206 -1.21279,7.92498 -0.95086,3.7469 -3.62895,8.11963 -5.52351,9.01864 -1.15987,0.5504 -3.2939,0.67035 -4.97206,0.27949 z m -52.06453,-63.46199 c 5.99294,-1.24215 14.58059,-5.59191 23.04448,-11.67235 7.24339,-5.20363 13.39569,-10.47805 22.19101,-19.02454 3.41867,-3.32196 4.58741,-4.30383 5.86941,-4.93091 2.50476,-1.22517 4.51886,-1.60503 7.66539,-1.44567 3.43727,0.17409 5.59479,0.77976 9.26613,2.60122 3.33429,1.65425 6.28113,3.75455 9.33277,6.65171 1.21664,1.15505 1.91646,1.69337 1.65301,1.27155 -1.98135,-3.17242 -7.47976,-9.17004 -10.86274,-11.84898 -6.48888,-5.13843 -12.99858,-7.19773 -18.83997,-5.95988 -2.78998,0.59122 -4.67508,1.78114 -8.32942,5.25774 -13.51937,12.86178 -25.28047,19.91256 -37.36581,22.40077 -1.36145,0.2803 -3.172,0.66668 -4.02344,0.85858 -1.87978,0.42373 -4.88872,0.79446 -9.078,1.11855 -3.53396,0.27338 -4.54763,0.677 -5.00655,1.99343 -0.63887,1.83271 -0.14436,4.16362 1.60433,7.56202 1.26502,2.45844 2.67585,4.16453 4.0042,4.8422 1.92985,0.98454 5.12696,1.10144 8.8752,0.32456 z m 86.75064,-39.53381 c 1.44106,-0.53917 2.75734,-1.73533 3.4405,-3.12649 0.47843,-0.97428 0.55669,-1.3721 0.55502,-2.8213 -0.002,-2.05315 -0.42606,-3.11791 -1.77916,-4.47101 -1.35309,-1.35309 -2.41786,-1.7768 -4.47101,-1.77916 -1.44541,-0.002 -1.84802,0.0771 -2.81059,0.54979 -1.29508,0.63599 -2.41006,1.78074 -3.01538,3.09586 -0.32488,0.70587 -0.42272,1.30652 -0.42422,2.60452 -0.002,1.4492 0.0766,1.84702 0.55503,2.8213 1.4257,2.90327 4.8973,4.26858 7.94981,3.12649 z"
       id="path4209"
       inkscape:connector-curvature="0"
       inkscape:export-filename="C:\Temp\jekyll\sfat\img\icons\bell-dark.png"
       inkscape:export-xdpi="90"
       inkscape:export-ydpi="90"
       sodipodi:nodetypes="sssssscsssscsssssssssssscsssscssccssssssscssssssssssssscscssssscscsccss" />
    <path
       style="color:#000000;clip-rule:nonzero;display:inline;overflow:visible;visibility:visible;opacity:1;isolation:auto;mix-blend-mode:normal;color-interpolation:sRGB;color-interpolation-filters:linearRGB;solid-color:#000000;solid-opacity:1;fill:#5b5b5b;fill-opacity:1;fill-rule:nonzero;stroke-width:1;stroke-linecap:butt;stroke-linejoin:miter;stroke-miterlimit:4;stroke-dasharray:none;stroke-dashoffset:0;stroke-opacity:1;color-rendering:auto;image-rendering:auto;shape-rendering:auto;text-rendering:auto;enable-background:accumulate"
       d="m 231.00344,511.74101 c -7.34271,-1.00803 -13.73069,-4.16832 -18.92507,-9.36271 -2.87316,-2.87316 -4.55987,-5.2569 -6.36168,-8.99063 -1.99357,-4.1311 -2.91692,-7.69852 -3.13898,-12.12766 -0.30809,-6.14485 0.62692,-10.96009 3.13898,-16.16563 1.80181,-3.73373 3.48852,-6.11748 6.36168,-8.99063 2.87316,-2.87316 5.2569,-4.55987 8.99063,-6.36168 3.02515,-1.45986 5.53837,-2.26432 8.98074,-2.87465 1.62319,-0.28779 8.70862,-0.28779 10.33182,0 3.44236,0.61033 5.95558,1.41479 8.98073,2.87465 3.73373,1.80181 6.11748,3.48852 8.99063,6.36168 2.87316,2.87315 4.55987,5.2569 6.36168,8.99063 1.17807,2.4412 1.67987,3.81206 2.27228,6.20754 0.72798,2.94368 0.81373,3.78027 0.81373,7.9391 0,4.15884 -0.0857,4.99543 -0.81373,7.93911 -0.59241,2.39548 -1.09421,3.76634 -2.27228,6.20754 -1.80181,3.73373 -3.48852,6.11747 -6.36168,8.99063 -2.87315,2.87316 -5.2569,4.55987 -8.99063,6.36168 -2.97726,1.43675 -5.15816,2.15152 -8.50531,2.78752 -1.57157,0.29862 -8.18912,0.44201 -9.85354,0.21351 z m 7.9088,-20.30049 0.0407,-12.27897 3.39567,0 3.39567,0 0.17747,-1.39082 c 0.40495,-3.17359 0.65888,-5.56235 0.65888,-6.19812 l 0,-0.67652 -3.81483,0 -3.81482,0 0,-3.0448 c 0,-3.04356 1.6e-4,-3.04503 0.41833,-3.59326 0.68191,-0.89403 1.11746,-0.99159 4.42716,-0.99159 l 2.9483,0 -0.0423,-4.25194 -0.0423,-4.25194 -5.08643,0.0114 c -5.06866,0.0113 -5.09143,0.0129 -6.51699,0.44522 -0.78681,0.23861 -1.81329,0.66265 -2.28106,0.94231 -1.11891,0.66897 -2.58702,2.25061 -3.1046,3.34468 -0.77759,1.64369 -0.88801,2.52826 -0.89056,7.13395 l -0.002,4.24791 -2.50348,0.0438 -2.50348,0.0438 -0.0424,4.09299 -0.0424,4.09299 2.5459,0 2.5459,0 0,12.32094 0,12.32094 5.0467,-0.042 5.04669,-0.042 0.0407,-12.27897 z"
       id="path4212"
       inkscape:connector-curvature="0"
       inkscape:export-filename="C:\Temp\jekyll\sfat\img\icons\facebook-gray.png"
       inkscape:export-xdpi="90"
       inkscape:export-ydpi="90" />
    <rect
       y="-280.08249"
       x="435.40244"
       height="179.74522"
       width="185.00858"
       id="rect4162"
       style="color:#000000;clip-rule:nonzero;display:inline;overflow:visible;visibility:visible;opacity:1;isolation:auto;mix-blend-mode:normal;color-interpolation:sRGB;color-interpolation-filters:linearRGB;solid-color:#000000;solid-opacity:1;fill:#642a28;fill-opacity:1;fill-rule:nonzero;stroke:none;stroke-width:1.89999998;stroke-linecap:butt;stroke-linejoin:miter;stroke-miterlimit:4;stroke-dasharray:none;stroke-dashoffset:0;stroke-opacity:1;marker:none;color-rendering:auto;image-rendering:auto;shape-rendering:auto;text-rendering:auto;enable-background:accumulate" />
    <path
       inkscape:export-filename="C:\Temp\jekyll\sfat\img\icons\home-light.png"
       inkscape:export-ydpi="90"
       inkscape:export-xdpi="90"
       sodipodi:nodetypes="ccssscccccccccssssssscsssccccccsccc"
       inkscape:connector-curvature="0"
       id="path4164"
       d="m 487.51821,-164.60618 0,-22.40316 19.99175,-16.29326 c 10.99562,-8.96131 20.13525,-16.29329 20.31028,-16.29329 0.17446,0 9.31409,7.33176 20.30896,16.29283 l 19.99043,16.29283 0,22.40359 0,22.40362 -12.70626,0 -16.30008,0 -22.589,0 -16.29983,0 -12.70625,0 z m -13.90433,-25.47635 c -2.72952,-3.34386 -4.9881,-6.21206 -5.0191,-6.37375 -0.0549,-0.28513 58.81969,-48.29549 59.22414,-48.29549 0.40443,0 59.27861,48.01036 59.22415,48.29549 -0.0315,0.16173 -2.2896,3.02989 -5.01913,6.37375 -4.47765,5.48571 -5.00423,6.0442 -5.39046,5.71566 -0.2344,-0.20028 -11.31524,-9.22601 -24.62123,-20.05718 l -24.19333,-19.69299 -24.19334,19.69299 c -13.30623,10.83117 -24.38576,19.8569 -24.62124,20.05718 -0.38622,0.32854 -0.91312,-0.22996 -5.39046,-5.71566 z m 84.70274,-34.21742 -9.67455,-7.87387 -0.0258,-4.17127 -0.0258,-4.17123 9.75428,0 9.75412,0 0,12.06452 c 0,6.63551 -0.0282,12.05586 -0.0648,12.04517 -0.0341,-0.0101 -4.41781,-3.56266 -9.73876,-7.89332 z"
       style="fill:#ffad32;fill-opacity:1" />
    <rect
       style="color:#000000;clip-rule:nonzero;display:inline;overflow:visible;visibility:visible;opacity:1;isolation:auto;mix-blend-mode:normal;color-interpolation:sRGB;color-interpolation-filters:linearRGB;solid-color:#000000;solid-opacity:1;fill:#eeeeee;fill-opacity:1;fill-rule:nonzero;stroke:none;stroke-width:1.89999998;stroke-linecap:butt;stroke-linejoin:miter;stroke-miterlimit:4;stroke-dasharray:none;stroke-dashoffset:0;stroke-opacity:1;marker:none;color-rendering:auto;image-rendering:auto;shape-rendering:auto;text-rendering:auto;enable-background:accumulate"
       id="rect4166"
       width="185.00858"
       height="179.74522"
       x="619.55292"
       y="-280.18176" />
    <path
       inkscape:export-filename="C:\Temp\jekyll\sfat\img\icons\home-dark.png"
       inkscape:export-ydpi="90"
       inkscape:export-xdpi="90"
       sodipodi:nodetypes="ccssscccccccccssssssscsssccccccsccc"
       inkscape:connector-curvature="0"
       id="path4168"
       d="m 675.02837,-157.98601 0,-22.40316 19.99175,-16.29326 c 10.99561,-8.96131 20.13524,-16.2933 20.31027,-16.2933 0.17445,0 9.31409,7.33177 20.30897,16.29282 l 19.9904,16.29283 0,22.40361 0,22.4036 -12.70622,0 -16.30011,0 -22.58898,0 -16.29985,0 -12.70623,0 z m -13.90433,-25.47635 c -2.72954,-3.34388 -4.9881,-6.21206 -5.01913,-6.37376 -0.0549,-0.28514 58.81973,-48.29548 59.22417,-48.29548 0.40443,0 59.2786,48.01034 59.22414,48.29548 -0.0316,0.16174 -2.28959,3.02988 -5.01913,6.37376 -4.47764,5.48573 -5.00422,6.04419 -5.39046,5.71566 -0.23439,-0.20028 -11.31524,-9.22601 -24.62121,-20.05717 l -24.19334,-19.69301 -24.19336,19.69301 c -13.30624,10.83116 -24.38574,19.85689 -24.62122,20.05717 -0.38622,0.32853 -0.91314,-0.22996 -5.39046,-5.71566 z m 84.70271,-34.21743 -9.67453,-7.87386 -0.0258,-4.17127 -0.0258,-4.17123 9.75429,0 9.75411,0 0,12.06452 c 0,6.63551 -0.0282,12.05585 -0.065,12.04517 -0.0341,-0.0101 -4.41779,-3.56268 -9.73874,-7.89333 z"
       style="fill:#541311;fill-opacity:1" />
    <path
       style="color:#000000;clip-rule:nonzero;display:inline;overflow:visible;visibility:visible;opacity:1;isolation:auto;mix-blend-mode:normal;color-interpolation:sRGB;color-interpolation-filters:linearRGB;solid-color:#000000;solid-opacity:1;fill:#666666;fill-opacity:1;fill-rule:nonzero;stroke:none;stroke-width:1;stroke-linecap:butt;stroke-linejoin:miter;stroke-miterlimit:4;stroke-dasharray:none;stroke-dashoffset:0;stroke-opacity:1;marker:none;color-rendering:auto;image-rendering:auto;shape-rendering:auto;text-rendering:auto;enable-background:accumulate"
       d="m 202.66032,-36.964017 c -37.59535,-1.162947 -68.90231,-2.229688 -69.57099,-2.370543 -0.6687,-0.140849 -1.21581,-0.48999 -1.21581,-0.775861 0,-0.285871 0.54711,-0.631937 1.21581,-0.769037 2.49189,-0.510891 150.95531,-5.368654 152.42729,-4.98746 2.53606,0.656761 4.14123,2.682821 4.14123,5.227104 0,5.026679 -1.81878,5.957299 -11.45576,5.861601 -3.9526,-0.03923 -37.9464,-1.022864 -75.54177,-2.185804 z m 83.34723,-1.59366 c 0.5185,-0.618725 0.80809,-1.342788 0.64354,-1.609028 -0.42362,-0.685443 -95.87862,-0.639658 -95.87862,0.04598 0,0.291534 0.54711,0.659009 1.2158,0.816604 1.65597,0.390284 88.20395,2.391352 90.91512,2.102044 1.31353,-0.140169 2.53124,-0.671956 3.10416,-1.35561 z m 8.1508,3.063118 c -2.03974,-0.887272 -2.8856,-2.280778 -2.86224,-4.715428 0.0572,-5.963373 9.73768,-8.11366 13.14133,-2.919032 1.00798,1.538381 1.1629,4.202256 0.3344,5.750315 -1.33036,2.485795 -6.94074,3.48177 -10.61349,1.884145 z m 7.80035,-2.763139 c 0.67294,-0.764821 1.08412,-1.616143 0.91373,-1.891829 -0.38563,-0.623978 -8.72439,-0.668795 -9.10747,-0.04896 -0.40734,0.659085 1.22338,2.787963 2.57008,3.355203 1.78112,0.750222 4.26981,0.124282 5.62366,-1.414418 z m 7.57087,2.708541 c -1.91213,-1.037675 -2.58029,-2.355882 -2.58029,-5.090657 0,-2.544283 1.60517,-4.570343 4.14124,-5.227104 1.47198,-0.381194 149.9354,4.476569 152.4273,4.98746 0.66869,0.1371 1.2158,0.483166 1.2158,0.769037 0,0.285871 -0.54711,0.633331 -1.2158,0.772138 -1.17622,0.24415 -145.99088,4.698456 -150.35442,4.624702 -1.18879,-0.0201 -2.82402,-0.396104 -3.63383,-0.835576 z m 55.23795,-2.703051 c 21.54675,-0.451214 39.60144,-0.948705 40.12153,-1.105533 0.5201,-0.156834 0.94563,-0.511924 0.94563,-0.789095 0,-0.563836 -95.24148,-0.725597 -95.80435,-0.162718 -0.56048,0.56047 0.68467,2.388547 1.95258,2.866731 0.64927,0.244863 3.97683,0.34751 7.3946,0.228106 3.41776,-0.119408 23.84326,-0.586276 45.39001,-1.037491 z"
       id="path4177"
       inkscape:connector-curvature="0"
       inkscape:export-filename="C:\Temp\jekyll\sfat\img\common\divider.png"
       inkscape:export-xdpi="90"
       inkscape:export-ydpi="90" />
  </g>
</svg>
